<svg  viewBox="0 0 434 135" fill="none" xmlns="http://www.w3.org/2000/svg">
<g filter="url(#filter0_dd_1424_3154)">
<path d="M102.144 64.3086V8.21635H111.598V55.4941H138.214V64.3086H102.144Z" fill="white"/>
<path d="M157.53 64.8695C145.604 64.8695 136.878 55.7345 136.878 42.9134C136.878 30.0923 145.604 21.0374 157.53 21.0374C169.602 21.0374 178.256 30.0923 178.256 42.9134C178.256 55.7345 169.602 64.8695 157.53 64.8695ZM157.53 56.2954C164.148 56.2954 169.093 51.0868 169.093 42.9134C169.093 34.74 164.148 29.5314 157.53 29.5314C150.986 29.5314 146.041 34.74 146.041 42.9134C146.041 51.0868 150.986 56.2954 157.53 56.2954Z" fill="white"/>
<path d="M213.927 21.5182H222.581V57.8179C222.581 73.3634 215.236 80.415 201.638 80.415C194.366 80.415 187.166 78.3316 182.73 74.325L186.803 66.7926C190.221 69.9178 195.747 71.9211 201.129 71.9211C209.71 71.9211 213.491 67.594 213.491 58.9397V56.696C210.291 60.5424 205.71 62.3854 200.474 62.3854C189.348 62.3854 180.84 54.0517 180.84 41.6313C180.84 29.2109 189.348 21.0374 200.474 21.0374C205.928 21.0374 210.728 22.9606 213.927 27.2076V21.5182ZM201.856 53.8914C208.691 53.8914 213.636 48.9233 213.636 41.6313C213.636 34.4194 208.691 29.5314 201.856 29.5314C194.947 29.5314 190.002 34.4194 190.002 41.6313C190.002 48.9233 194.947 53.8914 201.856 53.8914Z" fill="white"/>
<path d="M245.803 64.8695C233.877 64.8695 225.151 55.7345 225.151 42.9134C225.151 30.0923 233.877 21.0374 245.803 21.0374C257.875 21.0374 266.529 30.0923 266.529 42.9134C266.529 55.7345 257.875 64.8695 245.803 64.8695ZM245.803 56.2954C252.421 56.2954 257.366 51.0868 257.366 42.9134C257.366 34.74 252.421 29.5314 245.803 29.5314C239.258 29.5314 234.313 34.74 234.313 42.9134C234.313 51.0868 239.258 56.2954 245.803 56.2954Z" fill="white"/>
<path d="M319.58 64.3086H309.399L299 47.8816C298.346 47.9617 297.691 47.9617 297.037 47.9617H285.547V64.3086H276.094V8.21635H297.037C310.418 8.21635 318.708 15.7487 318.708 28.1692C318.708 36.6631 314.781 42.9134 307.872 45.8783L319.58 64.3086ZM309.181 28.1692C309.181 21.1176 304.891 17.0308 296.601 17.0308H285.547V39.3876H296.601C304.891 39.3876 309.181 35.2207 309.181 28.1692Z" fill="white"/>
<path d="M333.648 55.5742H362.372V64.3086H324.194V8.21635H361.354V16.9507H333.648V31.5347H358.227V40.1088H333.648V55.5742Z" fill="white"/>
<path d="M402.368 53.0901V35.6214H411.312V57.9782C406.004 62.7059 398.586 65.1099 391.387 65.1099C375.607 65.1099 363.971 53.01 363.971 36.2625C363.971 19.5149 375.607 7.41504 391.532 7.41504C400.041 7.41504 407.167 10.5402 411.967 16.5501L406.004 22.9606C402.004 18.5533 397.423 16.5501 391.969 16.5501C381.133 16.5501 373.498 24.6434 373.498 36.2625C373.498 47.6412 381.133 55.9749 391.896 55.9749C395.532 55.9749 399.095 55.1735 402.368 53.0901Z" fill="white"/>
<path d="M418.691 64.3086V8.21635H428.144V64.3086H418.691Z" fill="white"/>
<path fill-rule="evenodd" clip-rule="evenodd" d="M5.00001 37.1717C5.00001 17.1946 21.1947 1 41.1717 1H65.4431C73.1762 1 79.4451 7.26889 79.4451 15.0019L79.4451 39.4821C79.4451 46.0418 77.6989 52.1938 74.646 57.4985L80.3519 62.8232C83.7554 65.9994 83.9396 71.3333 80.7634 74.7368C77.5872 78.1403 72.2534 78.3246 68.8498 75.1484L63.0737 69.758C57.3852 73.4859 50.5825 75.6538 43.2734 75.6538H19.002C11.2689 75.6538 5 69.3849 5 61.6518L5.00001 37.1717ZM61.1447 44.8989L55.5205 39.6502C52.1169 36.474 46.783 36.6583 43.6069 40.0618C40.4307 43.4653 40.6149 48.7992 44.0184 51.9754L49.4976 57.0886C47.5508 57.7768 45.4558 58.1513 43.2734 58.1513H28.338C25.1254 58.1513 22.5193 55.5546 22.504 52.3456L22.504 37.1717L22.5024 37.1717C22.5024 26.8609 30.861 18.5024 41.1717 18.5024H56.1071C59.3197 18.5024 61.9258 21.0991 61.9412 24.3082L61.9412 39.4821H61.9427C61.9427 41.3659 61.6637 43.1845 61.1447 44.8989Z" fill="white"/>
</g>
<g filter="url(#filter1_dd_1424_3154)">
<path d="M66.6 125.73C66.2686 125.73 66 125.462 66 125.13V99.3728C66 99.0414 66.2686 98.7728 66.6 98.7728H69.9929C70.3243 98.7728 70.5929 99.0414 70.5929 99.3728V125.13C70.5929 125.462 70.3243 125.73 69.9929 125.73H66.6Z" fill="white"/>
<path d="M85.2669 104.935C89.7892 104.935 93.1456 107.746 93.1456 113.946V125.13C93.1456 125.462 92.8769 125.73 92.5456 125.73H89.3293C88.9979 125.73 88.7293 125.462 88.7293 125.13V114.562C88.7293 110.904 87.0687 109.132 84.2423 109.132C81.0979 109.132 78.9781 111.212 78.9781 115.332V125.13C78.9781 125.462 78.7095 125.73 78.3781 125.73H75.1618C74.8304 125.73 74.5618 125.462 74.5618 125.13V105.766C74.5618 105.434 74.8304 105.166 75.1618 105.166H78.1661C78.4975 105.166 78.7661 105.434 78.7661 105.766V106.056C78.7661 106.629 79.5558 106.925 80.0085 106.573C81.3943 105.497 83.2016 104.935 85.2669 104.935Z" fill="white"/>
<path d="M105.828 121.659C106.207 121.478 106.709 121.61 106.851 122.005L107.653 124.228C107.737 124.46 107.672 124.724 107.471 124.869C106.425 125.623 104.989 126 103.553 126C99.4192 126 97.052 123.612 97.052 119.068V109.771C97.052 109.439 96.7834 109.171 96.452 109.171H94.543C94.2116 109.171 93.943 108.902 93.943 108.571V105.92C93.943 105.588 94.2116 105.32 94.543 105.32H96.452C96.7834 105.32 97.052 105.051 97.052 104.72V101.221C97.052 100.89 97.3207 100.621 97.652 100.621H100.868C101.2 100.621 101.468 100.89 101.468 101.221V104.72C101.468 105.051 101.737 105.32 102.068 105.32H105.921C106.252 105.32 106.521 105.588 106.521 105.92V108.571C106.521 108.902 106.252 109.171 105.921 109.171H102.068C101.737 109.171 101.468 109.439 101.468 109.771V118.953C101.468 120.955 102.387 122.033 104.083 122.033C104.698 122.033 105.297 121.912 105.828 121.659Z" fill="white"/>
<path d="M126.244 115.564C126.244 115.804 126.23 116.119 126.211 116.434C126.192 116.747 125.931 116.988 125.617 116.988H112.085C111.712 116.988 111.427 117.327 111.53 117.686C112.272 120.287 114.458 121.918 117.482 121.918C119.347 121.918 120.857 121.351 122.108 120.191C122.38 119.939 122.816 119.949 123.048 120.239L124.678 122.281C124.85 122.497 124.855 122.805 124.673 123.014C122.973 124.972 120.441 126 117.376 126C111.052 126 106.953 121.571 106.953 115.448C106.953 109.325 111.087 104.935 116.705 104.935C122.216 104.935 126.244 109.132 126.244 115.564ZM116.705 108.786C114.064 108.786 112.086 110.49 111.462 113.113C111.378 113.468 111.66 113.792 112.025 113.792H121.364C121.723 113.792 122.004 113.477 121.928 113.125C121.361 110.525 119.379 108.786 116.705 108.786Z" fill="white"/>
<path d="M132.394 105.971C132.394 106.582 133.344 106.895 133.82 106.512C135.007 105.558 136.584 105.037 138.506 104.948C138.837 104.933 139.106 105.203 139.106 105.535V108.787C139.106 109.165 138.761 109.441 138.384 109.413C138.282 109.406 138.182 109.402 138.082 109.402C134.725 109.402 132.606 111.558 132.606 115.756V125.13C132.606 125.462 132.337 125.73 132.006 125.73H128.789C128.458 125.73 128.189 125.462 128.189 125.13V105.766C128.189 105.434 128.458 105.166 128.789 105.166H131.794C132.125 105.166 132.394 105.434 132.394 105.766V105.971Z" fill="white"/>
<path d="M147.66 104.935C153.101 104.935 156.246 107.746 156.246 113.677V125.13C156.246 125.462 155.977 125.73 155.646 125.73H152.618C152.319 125.73 152.077 125.488 152.077 125.188V125.188C152.077 124.639 151.212 124.344 150.773 124.676C149.635 125.534 148.069 126 146.141 126C141.831 126 139.11 123.42 139.11 119.838C139.11 116.411 141.23 113.715 146.954 113.715H151.521C151.691 113.715 151.829 113.577 151.829 113.407V113.407C151.829 110.596 150.275 108.94 147.13 108.94C145.3 108.94 143.416 109.514 142.026 110.489C141.701 110.718 141.232 110.627 141.056 110.271L139.884 107.898C139.762 107.65 139.823 107.349 140.044 107.183C142.038 105.684 144.802 104.935 147.66 104.935ZM147.06 122.496C149.182 122.496 151.03 121.45 151.794 119.395C151.818 119.332 151.829 119.265 151.829 119.197V117.511C151.829 117.18 151.561 116.911 151.229 116.911H147.272C144.269 116.911 143.456 118.144 143.456 119.646C143.456 121.379 144.798 122.496 147.06 122.496Z" fill="white"/>
<path d="M168.445 126C162.474 126 158.235 121.61 158.235 115.448C158.235 109.286 162.474 104.935 168.445 104.935C171.93 104.935 174.748 106.424 176.265 109.239C176.408 109.504 176.311 109.831 176.057 109.992L173.638 111.53C173.35 111.713 172.969 111.617 172.773 111.337C171.655 109.743 170.105 109.017 168.41 109.017C165.16 109.017 162.686 111.481 162.686 115.448C162.686 119.453 165.16 121.879 168.41 121.879C170.105 121.879 171.655 121.153 172.773 119.559C172.969 119.279 173.35 119.183 173.638 119.366L176.055 120.903C176.31 121.065 176.406 121.392 176.262 121.658C174.744 124.443 171.928 126 168.445 126Z" fill="white"/>
<path d="M187.639 121.659C188.019 121.478 188.521 121.61 188.663 122.005L189.465 124.228C189.549 124.46 189.483 124.724 189.283 124.869C188.237 125.623 186.801 126 185.365 126C181.231 126 178.864 123.612 178.864 119.068V109.771C178.864 109.439 178.595 109.171 178.264 109.171H176.355C176.023 109.171 175.755 108.902 175.755 108.571V105.92C175.755 105.588 176.023 105.32 176.355 105.32H178.264C178.595 105.32 178.864 105.051 178.864 104.72V101.221C178.864 100.89 179.132 100.621 179.464 100.621H182.68C183.011 100.621 183.28 100.89 183.28 101.221V104.72C183.28 105.051 183.549 105.32 183.88 105.32H187.732C188.064 105.32 188.332 105.588 188.332 105.92V108.571C188.332 108.902 188.064 109.171 187.732 109.171H183.88C183.549 109.171 183.28 109.439 183.28 109.771V118.953C183.28 120.955 184.199 122.033 185.895 122.033C186.51 122.033 187.109 121.912 187.639 121.659Z" fill="white"/>
<path d="M193.167 101.777C191.541 101.777 190.34 100.506 190.34 98.8883C190.34 97.2709 191.541 96 193.167 96C194.792 96 195.993 97.1938 195.993 98.7728C195.993 100.467 194.827 101.777 193.167 101.777ZM191.541 125.73C191.209 125.73 190.941 125.462 190.941 125.13V105.766C190.941 105.434 191.209 105.166 191.541 105.166H194.757C195.088 105.166 195.357 105.434 195.357 105.766V125.13C195.357 125.462 195.088 125.73 194.757 125.73H191.541Z" fill="white"/>
<path d="M212.132 105.545C212.223 105.316 212.444 105.166 212.69 105.166H215.641C216.064 105.166 216.354 105.592 216.2 105.985L208.581 125.35C208.491 125.58 208.269 125.73 208.023 125.73H204.283C204.036 125.73 203.814 125.58 203.724 125.35L196.106 105.985C195.951 105.592 196.241 105.166 196.664 105.166H199.964C200.212 105.166 200.435 105.319 200.524 105.55L205.689 118.981C205.885 119.491 206.606 119.495 206.807 118.987L212.132 105.545Z" fill="white"/>
<path d="M234.204 115.564C234.204 115.804 234.19 116.119 234.171 116.434C234.153 116.747 233.891 116.988 233.578 116.988H220.045C219.672 116.988 219.388 117.327 219.49 117.686C220.232 120.287 222.418 121.918 225.442 121.918C227.308 121.918 228.818 121.351 230.068 120.191C230.34 119.939 230.776 119.949 231.008 120.239L232.638 122.281C232.811 122.497 232.815 122.805 232.634 123.014C230.933 124.972 228.402 126 225.336 126C219.012 126 214.914 121.571 214.914 115.448C214.914 109.325 219.047 104.935 224.665 104.935C230.176 104.935 234.204 109.132 234.204 115.564ZM224.665 108.786C222.025 108.786 220.046 110.49 219.423 113.113C219.338 113.468 219.621 113.792 219.985 113.792H229.324C229.684 113.792 229.965 113.477 229.888 113.125C229.321 110.525 227.339 108.786 224.665 108.786Z" fill="white"/>
<path d="M271.104 125.13C271.104 125.461 270.835 125.73 270.504 125.73H267.358C267.027 125.73 266.758 125.463 266.758 125.132L266.728 110.19C266.727 109.57 265.901 109.359 265.602 109.902L258.768 122.338C258.663 122.53 258.461 122.65 258.243 122.65H256.9C256.683 122.65 256.483 122.532 256.377 122.342L249.546 110.106C249.245 109.566 248.422 109.78 248.422 110.398V125.13C248.422 125.462 248.154 125.73 247.822 125.73H244.641C244.31 125.73 244.041 125.462 244.041 125.13V99.3728C244.041 99.0414 244.31 98.7728 244.641 98.7728H247.467C247.686 98.7728 247.887 98.892 247.993 99.0838L257.113 115.677C257.342 116.093 257.941 116.091 258.167 115.673L267.119 99.0878C267.223 98.8937 267.426 98.7728 267.647 98.7728H270.47C270.801 98.7728 271.069 99.0409 271.07 99.372L271.104 125.13Z" fill="white"/>
<path d="M283.543 126C277.749 126 273.51 121.61 273.51 115.448C273.51 109.286 277.749 104.935 283.543 104.935C289.408 104.935 293.613 109.286 293.613 115.448C293.613 121.61 289.408 126 283.543 126ZM283.543 121.879C286.758 121.879 289.161 119.376 289.161 115.448C289.161 111.52 286.758 109.017 283.543 109.017C280.364 109.017 277.961 111.52 277.961 115.448C277.961 119.376 280.364 121.879 283.543 121.879Z" fill="white"/>
<path d="M306.244 104.935C310.767 104.935 314.123 107.746 314.123 113.946V125.13C314.123 125.462 313.854 125.73 313.523 125.73H310.307C309.975 125.73 309.707 125.462 309.707 125.13V114.562C309.707 110.904 308.046 109.132 305.22 109.132C302.075 109.132 299.955 111.212 299.955 115.332V125.13C299.955 125.462 299.687 125.73 299.355 125.73H296.139C295.808 125.73 295.539 125.462 295.539 125.13V105.766C295.539 105.434 295.808 105.166 296.139 105.166H299.143C299.475 105.166 299.743 105.434 299.743 105.766V106.056C299.743 106.629 300.533 106.925 300.986 106.573C302.372 105.497 304.179 104.935 306.244 104.935Z" fill="white"/>
<path d="M319.655 101.777C318.029 101.777 316.828 100.506 316.828 98.8883C316.828 97.2709 318.029 96 319.655 96C321.28 96 322.481 97.1938 322.481 98.7728C322.481 100.467 321.315 101.777 319.655 101.777ZM318.029 125.73C317.697 125.73 317.429 125.462 317.429 125.13V105.766C317.429 105.434 317.697 105.166 318.029 105.166H321.245C321.576 105.166 321.845 105.434 321.845 105.766V125.13C321.845 125.462 321.576 125.73 321.245 125.73H318.029Z" fill="white"/>
<path d="M334.721 121.659C335.1 121.478 335.602 121.61 335.745 122.005L336.547 124.228C336.631 124.46 336.565 124.724 336.365 124.869C335.319 125.623 333.883 126 332.446 126C328.313 126 325.946 123.612 325.946 119.068V109.771C325.946 109.439 325.677 109.171 325.346 109.171H323.437C323.105 109.171 322.837 108.902 322.837 108.571V105.92C322.837 105.588 323.105 105.32 323.437 105.32H325.346C325.677 105.32 325.946 105.051 325.946 104.72V101.221C325.946 100.89 326.214 100.621 326.546 100.621H329.762C330.093 100.621 330.362 100.89 330.362 101.221V104.72C330.362 105.051 330.631 105.32 330.962 105.32H334.814C335.146 105.32 335.414 105.588 335.414 105.92V108.571C335.414 108.902 335.146 109.171 334.814 109.171H330.962C330.631 109.171 330.362 109.439 330.362 109.771V118.953C330.362 120.955 331.28 122.033 332.976 122.033C333.591 122.033 334.191 121.912 334.721 121.659Z" fill="white"/>
<path d="M355.137 115.564C355.137 115.804 355.124 116.119 355.105 116.434C355.086 116.747 354.824 116.988 354.511 116.988H340.978C340.605 116.988 340.321 117.327 340.423 117.686C341.165 120.287 343.351 121.918 346.375 121.918C348.241 121.918 349.751 121.351 351.001 120.191C351.274 119.939 351.71 119.949 351.941 120.239L353.571 122.281C353.744 122.497 353.748 122.805 353.567 123.014C351.866 124.972 349.335 126 346.269 126C339.945 126 335.847 121.571 335.847 115.448C335.847 109.325 339.981 104.935 345.598 104.935C351.11 104.935 355.137 109.132 355.137 115.564ZM345.598 108.786C342.958 108.786 340.979 110.49 340.356 113.113C340.271 113.468 340.554 113.792 340.919 113.792H350.257C350.617 113.792 350.898 113.477 350.821 113.125C350.255 110.525 348.273 108.786 345.598 108.786Z" fill="white"/>
<path d="M361.287 105.971C361.287 106.582 362.237 106.895 362.713 106.512C363.901 105.558 365.478 105.037 367.4 104.948C367.731 104.933 368 105.203 368 105.535V108.787C368 109.165 367.654 109.441 367.277 109.413C367.175 109.406 367.075 109.402 366.975 109.402C363.619 109.402 361.499 111.558 361.499 115.756V125.13C361.499 125.462 361.231 125.73 360.899 125.73H357.683C357.352 125.73 357.083 125.462 357.083 125.13V105.766C357.083 105.434 357.352 105.166 357.683 105.166H360.687C361.019 105.166 361.287 105.434 361.287 105.766V105.971Z" fill="white"/>
</g>
<defs>
<filter id="filter0_dd_1424_3154" x="0" y="0" width="433.144" height="89.415" filterUnits="userSpaceOnUse" color-interpolation-filters="sRGB">
<feFlood flood-opacity="0" result="BackgroundImageFix"/>
<feColorMatrix in="SourceAlpha" type="matrix" values="0 0 0 0 0 0 0 0 0 0 0 0 0 0 0 0 0 0 127 0" result="hardAlpha"/>
<feMorphology radius="1" operator="erode" in="SourceAlpha" result="effect1_dropShadow_1424_3154"/>
<feOffset dy="2"/>
<feGaussianBlur stdDeviation="2"/>
<feColorMatrix type="matrix" values="0 0 0 0 0 0 0 0 0 0 0 0 0 0 0 0 0 0 0.06 0"/>
<feBlend mode="normal" in2="BackgroundImageFix" result="effect1_dropShadow_1424_3154"/>
<feColorMatrix in="SourceAlpha" type="matrix" values="0 0 0 0 0 0 0 0 0 0 0 0 0 0 0 0 0 0 127 0" result="hardAlpha"/>
<feMorphology radius="1" operator="erode" in="SourceAlpha" result="effect2_dropShadow_1424_3154"/>
<feOffset dy="4"/>
<feGaussianBlur stdDeviation="3"/>
<feColorMatrix type="matrix" values="0 0 0 0 0 0 0 0 0 0 0 0 0 0 0 0 0 0 0.1 0"/>
<feBlend mode="normal" in2="effect1_dropShadow_1424_3154" result="effect2_dropShadow_1424_3154"/>
<feBlend mode="normal" in="SourceGraphic" in2="effect2_dropShadow_1424_3154" result="shape"/>
</filter>
<filter id="filter1_dd_1424_3154" x="61" y="95" width="312" height="40" filterUnits="userSpaceOnUse" color-interpolation-filters="sRGB">
<feFlood flood-opacity="0" result="BackgroundImageFix"/>
<feColorMatrix in="SourceAlpha" type="matrix" values="0 0 0 0 0 0 0 0 0 0 0 0 0 0 0 0 0 0 127 0" result="hardAlpha"/>
<feMorphology radius="1" operator="erode" in="SourceAlpha" result="effect1_dropShadow_1424_3154"/>
<feOffset dy="2"/>
<feGaussianBlur stdDeviation="2"/>
<feColorMatrix type="matrix" values="0 0 0 0 0 0 0 0 0 0 0 0 0 0 0 0 0 0 0.06 0"/>
<feBlend mode="normal" in2="BackgroundImageFix" result="effect1_dropShadow_1424_3154"/>
<feColorMatrix in="SourceAlpha" type="matrix" values="0 0 0 0 0 0 0 0 0 0 0 0 0 0 0 0 0 0 127 0" result="hardAlpha"/>
<feMorphology radius="1" operator="erode" in="SourceAlpha" result="effect2_dropShadow_1424_3154"/>
<feOffset dy="4"/>
<feGaussianBlur stdDeviation="3"/>
<feColorMatrix type="matrix" values="0 0 0 0 0 0 0 0 0 0 0 0 0 0 0 0 0 0 0.1 0"/>
<feBlend mode="normal" in2="effect1_dropShadow_1424_3154" result="effect2_dropShadow_1424_3154"/>
<feBlend mode="normal" in="SourceGraphic" in2="effect2_dropShadow_1424_3154" result="shape"/>
</filter>
</defs>
</svg>
