<svg viewBox="0 0 261 90" fill="none" xmlns="http://www.w3.org/2000/svg">
<path d="M191.41 86.7658H190.943C190.871 86.483 190.759 86.2266 190.601 85.9964C190.351 86.2594 190.062 86.483 189.733 86.6737C189.405 86.8644 188.971 86.9565 188.412 86.9565C187.807 86.9565 187.241 86.8118 186.722 86.5159C186.202 86.22 185.788 85.8057 185.479 85.2797C185.17 84.7536 185.019 84.1552 185.019 83.4911C185.019 83.0176 185.104 82.5705 185.268 82.1431C185.433 81.7157 185.676 81.3409 185.985 81.0121C186.294 80.6899 186.669 80.4334 187.096 80.2427C187.524 80.0586 187.997 79.9666 188.51 79.9666C189.352 79.9666 190.049 80.2427 190.601 80.7951C190.674 80.6504 190.746 80.4466 190.818 80.1704H191.265L191.344 82.656H190.864C190.779 82.2351 190.621 81.8603 190.397 81.5316C190.174 81.2028 189.904 80.9529 189.595 80.7754C189.286 80.6044 188.964 80.5123 188.622 80.5123C188.247 80.5123 187.905 80.6175 187.603 80.8214C187.3 81.0252 187.064 81.3474 186.893 81.7683C186.722 82.1957 186.636 82.7217 186.636 83.353C186.636 83.9843 186.708 84.484 186.853 84.8917C186.998 85.2994 187.169 85.6084 187.379 85.8189C187.59 86.0293 187.8 86.1674 188.01 86.2463C188.221 86.3186 188.425 86.3581 188.609 86.3581C189.017 86.3581 189.385 86.2463 189.714 86.0293C190.042 85.8123 190.305 85.5361 190.516 85.2008C190.726 84.8654 190.864 84.5366 190.937 84.2078H191.417V86.7592L191.41 86.7658Z" fill="#2F4466"/>
<path d="M195.77 86.8377H193.067V86.3774H193.212C193.402 86.3774 193.547 86.3511 193.633 86.2985C193.718 86.2459 193.771 86.1736 193.797 86.075C193.823 85.9763 193.83 85.8382 193.83 85.6541V84.1746C193.83 83.9708 193.817 83.8195 193.79 83.734C193.764 83.6485 193.698 83.5828 193.6 83.5433C193.495 83.5039 193.317 83.4842 193.074 83.4776V83.0173L195.112 82.5899V85.6475C195.112 85.9237 195.145 86.1144 195.217 86.2196C195.29 86.3248 195.474 86.3709 195.776 86.3709V86.8312L195.77 86.8377ZM195.204 80.6501C195.204 80.8473 195.132 81.0183 194.994 81.163C194.856 81.3076 194.685 81.3734 194.481 81.3734C194.277 81.3734 194.113 81.301 193.968 81.1564C193.823 81.0117 193.751 80.8408 193.751 80.6501C193.751 80.4594 193.823 80.2818 193.968 80.1372C194.113 79.9925 194.284 79.9202 194.481 79.9202C194.678 79.9202 194.856 79.9925 194.994 80.1306C195.132 80.2687 195.204 80.4396 195.204 80.6501Z" fill="#2F4466"/>
<path d="M201.267 83.3858C201.267 83.5764 201.208 83.7277 201.089 83.8395C200.971 83.9513 200.833 84.0039 200.675 84.0039C200.484 84.0039 200.32 83.9118 200.175 83.7277C200.11 83.6422 200.057 83.583 200.011 83.5501C199.965 83.5173 199.906 83.4975 199.827 83.4975C199.57 83.4975 199.367 83.6356 199.222 83.9184C199.077 84.2011 199.005 84.4905 199.005 84.7929V85.6609C199.005 85.9371 199.038 86.1278 199.11 86.233C199.182 86.3382 199.367 86.3842 199.676 86.3842H199.939V86.8445H196.848V86.3842H197.105C197.381 86.3842 197.552 86.3316 197.617 86.2264C197.683 86.1212 197.71 85.9305 197.71 85.6609V84.2077C197.71 83.9841 197.69 83.8263 197.644 83.7277C197.598 83.6291 197.519 83.5699 197.4 83.537C197.282 83.5041 197.098 83.491 196.842 83.491V83.0307L198.781 82.6033C198.834 82.7742 198.88 83.1293 198.919 83.6817C199.012 83.4844 199.136 83.3068 199.288 83.1425C199.439 82.9781 199.61 82.8466 199.794 82.7479C199.985 82.6493 200.175 82.5967 200.366 82.5967C200.636 82.5967 200.853 82.6756 201.011 82.8268C201.168 82.9781 201.247 83.1622 201.247 83.3858H201.267Z" fill="#2F4466"/>
<path d="M210.118 86.8379H206.37V86.3776H206.672C206.929 86.3776 207.106 86.3644 207.205 86.3315C207.297 86.2987 207.35 86.2461 207.35 86.1672C207.35 86.0488 207.211 85.8055 206.942 85.4175L205.495 83.3725L204.64 84.1221V85.5819C204.64 85.8778 204.706 86.0817 204.844 86.2C204.982 86.3184 205.239 86.3776 205.62 86.3776V86.8379H202.247V86.3776C202.536 86.3776 202.747 86.3447 202.885 86.2855C203.023 86.2263 203.115 86.1409 203.154 86.0291C203.194 85.9173 203.22 85.766 203.22 85.5754V81.3341C203.22 81.1434 203.2 80.9921 203.161 80.8804C203.121 80.7751 203.036 80.6897 202.891 80.6305C202.753 80.5713 202.536 80.5384 202.247 80.5384V80.0781H205.62V80.5384C205.206 80.5384 204.936 80.5976 204.818 80.716C204.7 80.8343 204.64 81.0447 204.64 81.3341V83.3659L206.738 81.5313C206.883 81.4064 206.988 81.2946 207.054 81.2026C207.119 81.1105 207.152 81.0119 207.152 80.9001C207.152 80.6634 206.922 80.545 206.468 80.545V80.0847H209.546V80.545C209.309 80.5647 209.112 80.591 208.961 80.6305C208.809 80.6634 208.665 80.7291 208.52 80.808C208.375 80.8869 208.224 80.9987 208.053 81.1368C207.882 81.2749 207.619 81.4985 207.251 81.8207L206.547 82.4322L208.54 85.2663C208.75 85.5688 208.928 85.7923 209.059 85.9436C209.191 86.0948 209.342 86.2 209.5 86.2658C209.658 86.3316 209.861 86.371 210.118 86.3776V86.8379Z" fill="#2F4466"/>
<path d="M213.787 86.8377H211.084V86.3774H211.229C211.42 86.3774 211.564 86.3511 211.65 86.2985C211.735 86.2459 211.795 86.1736 211.814 86.075C211.834 85.9763 211.847 85.8382 211.847 85.6541V84.1746C211.847 83.9708 211.834 83.8195 211.808 83.734C211.781 83.6485 211.716 83.5828 211.617 83.5433C211.512 83.5039 211.341 83.4842 211.091 83.4776V83.0173L213.129 82.5899V85.6475C213.129 85.9237 213.162 86.1144 213.235 86.2196C213.307 86.3248 213.491 86.3709 213.794 86.3709V86.8312L213.787 86.8377ZM213.222 80.6501C213.222 80.8473 213.149 81.0183 213.011 81.163C212.873 81.301 212.702 81.3734 212.498 81.3734C212.294 81.3734 212.13 81.301 211.985 81.1564C211.841 81.0117 211.768 80.8408 211.768 80.6501C211.768 80.4594 211.841 80.2818 211.985 80.1372C212.13 79.9925 212.301 79.9202 212.498 79.9202C212.695 79.9202 212.873 79.9925 213.011 80.1306C213.149 80.2687 213.222 80.4396 213.222 80.6501Z" fill="#2F4466"/>
<path d="M218.423 85.9501C218.245 86.325 218.035 86.5946 217.798 86.7589C217.561 86.9233 217.279 87.0022 216.956 87.0022C216.568 87.0022 216.279 86.9233 216.088 86.7655C215.898 86.6077 215.786 86.4302 215.747 86.2329C215.701 86.0356 215.681 85.8121 215.681 85.5688V83.2278H214.931V82.7675C215.247 82.7675 215.523 82.7084 215.753 82.59C215.983 82.4716 216.167 82.3072 216.305 82.11C216.437 81.9061 216.522 81.6891 216.562 81.459H216.97V82.7741H218.377V83.2344H216.97V85.6082C216.97 85.8975 216.989 86.108 217.029 86.2329C217.068 86.3578 217.16 86.4236 217.312 86.4236C217.469 86.4236 217.601 86.3578 217.706 86.2395C217.811 86.1145 217.91 85.9633 218.002 85.7726L218.429 85.9633L218.423 85.9501Z" fill="#2F4466"/>
<path d="M228.885 81.8865C228.885 82.4388 228.714 82.8597 228.372 83.149C228.03 83.4383 227.629 83.6224 227.168 83.7013C226.701 83.7803 226.215 83.8263 225.709 83.8263H225.261V85.5886C225.261 85.7858 225.281 85.9436 225.327 86.0488C225.373 86.1606 225.465 86.2395 225.603 86.2987C225.748 86.3579 225.965 86.3842 226.254 86.3842V86.8445H222.861V86.3842C223.151 86.3842 223.361 86.3513 223.499 86.2921C223.637 86.233 223.729 86.1475 223.769 86.0357C223.808 85.9239 223.828 85.7727 223.828 85.582V81.321C223.828 81.1303 223.808 80.979 223.769 80.8738C223.729 80.7686 223.637 80.6831 223.499 80.6174C223.361 80.5582 223.144 80.5253 222.855 80.5253V80.0584L224.781 80.0058C224.88 80.0058 224.992 80.0058 225.11 79.9993C225.229 79.9993 225.321 79.9993 225.393 79.9993C225.465 79.9993 225.564 79.9993 225.702 79.9993C225.873 79.9993 225.998 79.9993 226.083 79.9993C226.478 80.019 226.859 80.0519 227.221 80.1111C227.583 80.1702 227.957 80.3412 228.326 80.6174C228.7 80.8936 228.885 81.3144 228.885 81.8865ZM227.352 81.893C227.352 81.3538 227.195 80.9988 226.886 80.8146C226.57 80.6371 226.162 80.545 225.649 80.545C225.557 80.545 225.426 80.545 225.261 80.5582V83.2674H225.722C226.208 83.2674 226.603 83.1819 226.905 83.0175C227.208 82.8531 227.359 82.4783 227.359 81.893H227.352Z" fill="#2F4466"/>
<path d="M234.434 83.3858C234.434 83.5764 234.375 83.7277 234.257 83.8395C234.139 83.9513 234 84.0039 233.843 84.0039C233.652 84.0039 233.488 83.9118 233.343 83.7277C233.277 83.6422 233.225 83.583 233.178 83.5501C233.132 83.5173 233.073 83.4975 232.994 83.4975C232.738 83.4975 232.534 83.6356 232.389 83.9184C232.245 84.2011 232.172 84.4905 232.172 84.7929V85.6609C232.172 85.9371 232.205 86.1278 232.278 86.233C232.35 86.3382 232.534 86.3842 232.843 86.3842H233.106V86.8445H230.016V86.3842H230.272C230.548 86.3842 230.719 86.3316 230.785 86.2264C230.851 86.1212 230.877 85.9305 230.877 85.6609V84.2077C230.877 83.9841 230.857 83.8263 230.811 83.7277C230.765 83.6291 230.686 83.5699 230.568 83.537C230.45 83.5041 230.265 83.491 230.009 83.491V83.0307L231.949 82.6033C232.001 82.7742 232.047 83.1293 232.087 83.6817C232.179 83.4844 232.304 83.3068 232.455 83.1425C232.606 82.9781 232.777 82.8466 232.961 82.7479C233.152 82.6493 233.343 82.5967 233.534 82.5967C233.803 82.5967 234.02 82.6756 234.178 82.8268C234.336 82.9781 234.415 83.1622 234.415 83.3858H234.434Z" fill="#2F4466"/>
<path d="M240.491 84.7864C240.491 85.2401 240.379 85.6281 240.162 85.9634C239.945 86.2988 239.649 86.5552 239.274 86.7328C238.899 86.9103 238.492 87.0024 238.045 87.0024C237.624 87.0024 237.229 86.9235 236.861 86.7591C236.486 86.5947 236.184 86.3514 235.947 86.016C235.71 85.6872 235.592 85.2796 235.592 84.7995C235.592 84.0828 235.835 83.5304 236.328 83.1622C236.821 82.7874 237.4 82.6033 238.077 82.6033C238.584 82.6033 239.018 82.7019 239.379 82.8992C239.741 83.0964 240.024 83.366 240.208 83.7014C240.392 84.0368 240.491 84.3984 240.491 84.793V84.7864ZM239.116 84.7535C239.116 84.188 239.044 83.7672 238.893 83.4778C238.742 83.1951 238.452 83.0504 238.025 83.0504C237.749 83.0504 237.532 83.1096 237.38 83.2345C237.229 83.3595 237.117 83.5502 237.058 83.8132C236.999 84.0762 236.966 84.4116 236.966 84.8258C236.966 85.3387 237.032 85.753 237.17 86.0621C237.308 86.3777 237.604 86.5355 238.064 86.5355C238.367 86.5355 238.597 86.45 238.755 86.2725C238.912 86.0949 239.011 85.8845 239.057 85.6281C239.103 85.3716 239.123 85.0757 239.123 84.7469L239.116 84.7535Z" fill="#2F4466"/>
<path d="M244.068 86.9627C244.068 87.2914 244.055 87.5676 244.028 87.7846C244.002 88.0016 243.936 88.2055 243.824 88.3962C243.621 88.7578 243.358 89.0011 243.049 89.1326C242.739 89.2641 242.424 89.3233 242.115 89.3233C241.648 89.3233 241.306 89.2378 241.082 89.0669C240.859 88.8959 240.747 88.6921 240.747 88.4619C240.747 88.2975 240.806 88.166 240.931 88.0542C241.056 87.9424 241.194 87.8898 241.352 87.8898C241.536 87.8898 241.668 87.9424 241.76 88.0542C241.852 88.166 241.918 88.3041 241.977 88.4685C242.029 88.5868 242.075 88.6789 242.128 88.7315C242.181 88.7907 242.253 88.817 242.352 88.817C242.483 88.817 242.582 88.771 242.647 88.6789C242.713 88.5868 242.753 88.4553 242.766 88.2909C242.779 88.1266 242.786 87.8701 242.786 87.5216V84.0694C242.786 83.8853 242.766 83.7538 242.726 83.6814C242.687 83.6025 242.615 83.5499 242.503 83.5236C242.391 83.4973 242.213 83.4842 241.97 83.4842V83.0239L244.068 82.5964V86.9627ZM244.232 80.6501C244.232 80.8473 244.16 81.0183 244.022 81.163C243.884 81.301 243.713 81.3734 243.509 81.3734C243.305 81.3734 243.141 81.301 242.996 81.1564C242.851 81.0117 242.779 80.8408 242.779 80.6501C242.779 80.4594 242.851 80.2818 242.996 80.1372C243.141 79.9925 243.312 79.9202 243.509 79.9202C243.706 79.9202 243.884 79.9925 244.022 80.1306C244.16 80.2687 244.232 80.4396 244.232 80.6501Z" fill="#2F4466"/>
<path d="M250.473 84.6483H247.415C247.415 84.714 247.428 84.8455 247.441 85.0494C247.454 85.2532 247.5 85.4636 247.579 85.6806C247.658 85.8976 247.79 86.0752 247.98 86.2264C248.171 86.3711 248.428 86.45 248.75 86.45C248.927 86.45 249.138 86.404 249.388 86.3119C249.637 86.2198 249.854 86.0489 250.032 85.7924L250.42 86.0554C250.032 86.6801 249.407 86.9958 248.552 86.9958C248.171 86.9958 247.823 86.9432 247.513 86.8314C247.198 86.7196 246.935 86.5684 246.718 86.3711C246.501 86.1738 246.33 85.9437 246.218 85.6806C246.1 85.4176 246.047 85.1283 246.047 84.8258C246.047 84.4247 246.146 84.0499 246.336 83.7079C246.527 83.366 246.81 83.0964 247.172 82.8926C247.533 82.6887 247.947 82.5901 248.408 82.5901C248.868 82.5901 249.249 82.6887 249.559 82.886C249.874 83.0833 250.104 83.3331 250.256 83.6488C250.407 83.9578 250.479 84.2932 250.479 84.6417L250.473 84.6483ZM249.236 84.188C249.236 83.4318 248.94 83.0504 248.342 83.0504C248.053 83.0504 247.829 83.1556 247.678 83.366C247.527 83.5764 247.441 83.846 247.421 84.188H249.236Z" fill="#2F4466"/>
<path d="M256.338 85.8253C255.937 86.6078 255.292 87.0023 254.405 87.0023C253.99 87.0023 253.596 86.9169 253.228 86.7459C252.859 86.5749 252.564 86.3316 252.34 86.0094C252.116 85.6872 252.005 85.3124 252.005 84.8784C252.005 84.5825 252.064 84.2932 252.189 84.0236C252.307 83.754 252.485 83.5041 252.715 83.2871C252.945 83.0701 253.215 82.8991 253.53 82.7742C253.846 82.6493 254.181 82.5901 254.536 82.5901C254.997 82.5901 255.398 82.6821 255.746 82.8597C256.095 83.0372 256.266 83.2871 256.266 83.6093C256.266 83.754 256.213 83.8789 256.101 83.9841C255.989 84.0893 255.865 84.1354 255.72 84.1354C255.575 84.1354 255.477 84.1025 255.404 84.0433C255.332 83.9775 255.286 83.9184 255.26 83.8526C255.233 83.7869 255.2 83.6685 255.161 83.4975C255.115 83.3331 255.049 83.2213 254.944 83.149C254.845 83.0833 254.707 83.0438 254.53 83.0438C254.227 83.0438 253.958 83.1556 253.727 83.3792C253.497 83.6027 253.379 84.0236 253.379 84.6351C253.379 84.9639 253.425 85.2664 253.517 85.5425C253.609 85.8187 253.76 86.0357 253.964 86.2001C254.168 86.3579 254.418 86.4434 254.714 86.4434C255.043 86.4434 255.292 86.3645 255.463 86.2001C255.634 86.0357 255.792 85.845 255.924 85.628L256.338 85.8253Z" fill="#2F4466"/>
<path d="M260.98 85.9501C260.803 86.325 260.592 86.5946 260.356 86.7589C260.119 86.9233 259.836 87.0022 259.514 87.0022C259.12 87.0022 258.83 86.9233 258.646 86.7655C258.462 86.6077 258.344 86.4302 258.304 86.2329C258.258 86.0356 258.238 85.8121 258.238 85.5688V83.2278H257.489V82.7675C257.804 82.7675 258.081 82.7084 258.311 82.59C258.541 82.4716 258.725 82.3072 258.863 82.11C259.001 81.9061 259.08 81.6891 259.12 81.459H259.527V82.7741H260.934V83.2344H259.527V85.6082C259.527 85.8975 259.547 86.108 259.586 86.2329C259.626 86.3578 259.718 86.4236 259.869 86.4236C260.027 86.4236 260.158 86.3578 260.264 86.2395C260.369 86.1145 260.468 85.9633 260.56 85.7726L260.987 85.9633L260.98 85.9501Z" fill="#2F4466"/>
<path d="M13.171 1.45321V6.35206C13.171 8.42996 11.4679 9.98839 9.53467 9.98839C8.27215 9.98839 7.10168 9.33082 7.10168 8.31817C7.10168 7.62773 7.66719 7.07538 8.3642 7.07538C9.06122 7.07538 9.62673 7.62773 9.62673 8.31817C9.62673 8.37078 9.62673 8.42338 9.607 8.47599C10.0344 8.04857 10.2448 7.48307 10.2448 6.84523V3.47193H7.2595C6.92414 4.912 6.477 6.7729 6.42439 6.97017C5.85889 9.13355 4.49116 9.98839 2.84067 9.98839C0.690441 9.98839 0 8.51544 0 7.80528C0 7.09511 0.565504 6.54275 1.26252 6.54275C1.95954 6.54275 2.52504 7.10826 2.52504 7.80528C2.52504 8.00254 2.47244 8.19324 2.38038 8.35763C2.53819 8.42996 2.8078 8.41023 3.01822 8.2853C3.21548 8.16036 3.55084 7.71979 3.87305 6.42439C4.07032 5.60901 4.33334 4.50431 4.58322 3.47851H1.565V1.45321H5.06324C5.27366 0.585231 5.41832 0 5.41832 0H8.71929C8.71929 0.249874 8.59435 0.427416 8.43654 0.512899C8.22612 0.637836 7.93679 0.900862 7.75925 1.45321H13.171Z" fill="#2F4466"/>
<path d="M28.9524 0.282715C28.9524 0.282715 27.6044 5.3065 27.4269 6.01667C26.5918 9.08749 23.9286 9.99492 22.0875 9.99492C20.6145 9.99492 19.3191 9.28476 18.8917 8.25238C18.872 8.25238 18.872 8.23266 18.872 8.23266C18.8194 8.07484 18.7865 7.91045 18.7865 7.75263C18.7865 7.06219 19.352 6.49011 20.049 6.49011C20.746 6.49011 21.3115 7.05562 21.3115 7.75263C21.3115 7.96305 21.2589 8.1406 21.1669 8.30499C21.3641 8.37732 21.6798 8.44965 21.9494 8.44965C23.0344 8.44965 23.9878 7.71976 24.4152 6.10873C24.5204 5.72076 25.0333 3.83356 25.4476 2.30801H17.4451V0.282715H28.9656H28.9524Z" fill="#2F4466"/>
<path d="M43.1033 9.7649H34.2656V8.1473H37.8691V4.11643H35.2585V2.51855H43.4255C43.4255 3.40627 42.5575 4.11643 41.4922 4.11643H40.2166V8.1473H41.2489C41.9262 8.1473 42.2616 8.6602 42.5246 8.6602C42.6693 8.6602 42.7745 8.55499 42.7745 8.41032C42.7745 8.32484 42.7022 8.23278 42.7022 8.00263C42.7022 7.45028 43.1427 6.98998 43.7148 6.98998C44.2146 6.98998 44.6025 7.34507 44.7077 7.82509C44.905 8.87062 44.0699 9.75833 43.1098 9.75833L43.1033 9.7649Z" fill="#2F4466"/>
<path d="M3.4259 74.8833C1.53212 74.8833 0 73.3511 0 71.4574V23.6722C0 21.7785 1.53212 20.2463 3.4259 20.2463H64.9015C66.7953 20.2463 68.3274 21.7785 68.3274 23.6722V52.0198C68.3274 64.6253 58.0694 74.8833 45.4639 74.8833H3.4259ZM38.7765 62.2515C45.1812 62.2515 50.3891 57.0436 50.3891 50.6389V39.4998C50.3891 35.9029 47.4169 32.9833 43.7674 32.9833H17.9383V62.2515H38.7765Z" fill="#2F4466"/>
<path d="M99.3317 74.8833C97.4379 74.8833 95.9058 73.3512 95.9058 71.4574V65.7826C95.9058 63.8888 97.4379 62.3567 99.3317 62.3567H134.044C137.405 62.3567 140.883 59.7593 140.883 55.4128V32.7729H99.3317C97.4379 32.7729 95.9058 31.2408 95.9058 29.347V23.6723C95.9058 21.7785 97.4379 20.2464 99.3317 20.2464H155.501C157.394 20.2464 158.927 21.7785 158.927 23.6723V57.642C158.927 68.8403 150.372 74.8833 142.323 74.8833H99.3382H99.3317ZM154.094 18.3986C151.49 18.3986 149.366 16.2287 149.366 13.5655C149.366 10.9024 151.483 8.83765 154.094 8.83765C156.704 8.83765 158.927 10.955 158.927 13.5655C158.927 16.1761 156.803 18.3986 154.094 18.3986ZM142.639 18.3986C140.035 18.3986 137.911 16.2287 137.911 13.5655C137.911 10.9024 140.028 8.83765 142.639 8.83765C145.249 8.83765 147.472 10.955 147.472 13.5655C147.472 16.1761 145.348 18.3986 142.639 18.3986Z" fill="#2F4466"/>
<path d="M249.466 75.9486C246.271 75.9486 243.226 75.0609 239.892 73.1539C234.625 70.1817 229.213 65.0067 228.115 63.9283C220.172 69.1231 211.42 72.5358 201.379 74.3507C201.175 74.3901 200.971 74.4033 200.767 74.4033C199.347 74.4033 198.052 73.5222 197.552 72.1479C196.98 70.5763 197.624 68.8272 199.077 68.0052C201.228 66.7821 203.332 65.4933 205.331 64.1716C220.1 54.4265 229.805 42.6233 233.422 30.0178H191.851C189.957 30.0178 188.425 28.4857 188.425 26.5919V20.8119C188.425 18.9181 189.957 17.386 191.851 17.386H251.367C252.373 17.386 253.333 17.8331 253.984 18.6025C254.635 19.3718 254.911 20.3911 254.747 21.384C252.754 33.1938 247.52 45.0431 241.096 52.3092C239.195 54.4397 238.676 56.9055 239.656 59.1018C240.53 61.0613 242.483 62.3239 244.633 62.3239C245.922 62.3239 247.25 61.8767 248.487 61.0285C250.052 59.8777 251.459 59.3911 253.201 59.3911C257.502 59.3911 261 62.8894 261 67.1898C261 70.5368 258.843 72.904 256.831 74.0022C254.563 75.3633 252.366 75.942 249.486 75.942L249.466 75.9486Z" fill="#2F4466"/>
</svg>
